<svg width="16" height="16" viewBox="0 0 16 16" fill="none" xmlns="http://www.w3.org/2000/svg">
<path d="M7.33333 4C7.33333 4.53043 7.68452 5.03914 8.30964 5.41421C8.93477 5.78929 9.78261 6 10.6667 6C11.5507 6 12.3986 5.78929 13.0237 5.41421C13.6488 5.03914 14 4.53043 14 4M7.33333 6.66667V4C7.33333 3.46957 7.68452 2.96086 8.30964 2.58579C8.93477 2.21071 9.78261 2 10.6667 2C11.5507 2 12.3986 2.21071 13.0237 2.58579C13.6488 2.96086 14 3.46957 14 4M14 4V6.66667M7.33333 6.66667C7.33333 7.77133 8.826 8.66667 10.6667 8.66667C12.5073 8.66667 14 7.77133 14 6.66667M7.33333 6.66667V9.33333M14 6.66667V9.33333M7.33333 9.33333C7.33333 10.438 8.826 11.3333 10.6667 11.3333C12.5073 11.3333 14 10.438 14 9.33333M7.33333 9.33333V12C7.33333 13.1047 8.826 14 10.6667 14C12.5073 14 14 13.1047 14 12V9.33333M4.66667 6H3C2.73478 6 2.48043 6.10536 2.29289 6.29289C2.10536 6.48043 2 6.73478 2 7C2 7.26522 2.10536 7.51957 2.29289 7.70711C2.48043 7.89464 2.73478 8 3 8H3.66667C3.93188 8 4.18624 8.10536 4.37377 8.29289C4.56131 8.48043 4.66667 8.73478 4.66667 9C4.66667 9.26522 4.56131 9.51957 4.37377 9.70711C4.18624 9.89464 3.93188 10 3.66667 10H2M3.33333 10V10.6667M3.33333 5.33333V6" stroke="#646B72" stroke-linecap="round" stroke-linejoin="round"/>
</svg>
