<svg width="14" height="14" viewBox="0 0 14 14" fill="none" xmlns="http://www.w3.org/2000/svg">
<path d="M9.33325 1.75V4.08333M4.66659 1.75V4.08333M2.33325 6.41667H11.6666M6.41659 8.75H6.99992V10.5M2.33325 4.08333C2.33325 3.77391 2.45617 3.47717 2.67496 3.25838C2.89375 3.03958 3.1905 2.91667 3.49992 2.91667H10.4999C10.8093 2.91667 11.1061 3.03958 11.3249 3.25838C11.5437 3.47717 11.6666 3.77391 11.6666 4.08333V11.0833C11.6666 11.3928 11.5437 11.6895 11.3249 11.9083C11.1061 12.1271 10.8093 12.25 10.4999 12.25H3.49992C3.1905 12.25 2.89375 12.1271 2.67496 11.9083C2.45617 11.6895 2.33325 11.3928 2.33325 11.0833V4.08333Z" stroke="#212B36" stroke-linecap="round" stroke-linejoin="round"/>
</svg>
