<svg width="18" height="18" viewBox="0 0 18 18" fill="none" xmlns="http://www.w3.org/2000/svg">
<path d="M13.5 9H13.5075M4.5 9H4.5075M6.75 9C6.75 9.59674 6.98705 10.169 7.40901 10.591C7.83097 11.0129 8.40326 11.25 9 11.25C9.59674 11.25 10.169 11.0129 10.591 10.591C11.0129 10.169 11.25 9.59674 11.25 9C11.25 8.40326 11.0129 7.83097 10.591 7.40901C10.169 6.98705 9.59674 6.75 9 6.75C8.40326 6.75 7.83097 6.98705 7.40901 7.40901C6.98705 7.83097 6.75 8.40326 6.75 9ZM2.25 6C2.25 5.60218 2.40804 5.22064 2.68934 4.93934C2.97064 4.65804 3.35218 4.5 3.75 4.5H14.25C14.6478 4.5 15.0294 4.65804 15.3107 4.93934C15.592 5.22064 15.75 5.60218 15.75 6V12C15.75 12.3978 15.592 12.7794 15.3107 13.0607C15.0294 13.342 14.6478 13.5 14.25 13.5H3.75C3.35218 13.5 2.97064 13.342 2.68934 13.0607C2.40804 12.7794 2.25 12.3978 2.25 12V6Z" stroke="#FE9F43" stroke-linecap="round" stroke-linejoin="round"/>
</svg>
