<svg width="32" height="32" viewBox="0 0 32 32" fill="none" xmlns="http://www.w3.org/2000/svg">
<g clip-path="url(#clip0_9188_27349)">
<path fill-rule="evenodd" clip-rule="evenodd" d="M16.5815 9.06301C17.4302 8.2433 18.5669 7.78972 19.7468 7.79997C20.9267 7.81023 22.0554 8.28349 22.8897 9.11782C23.724 9.95216 24.1973 11.0808 24.2075 12.2607C24.2178 13.4406 23.7642 14.5773 22.9445 15.426L22.9354 15.4353L20.6855 17.6852C20.2293 18.1416 19.6803 18.4945 19.0757 18.72C18.4711 18.9455 17.8251 19.0384 17.1815 18.9923C16.5378 18.9462 15.9116 18.7622 15.3454 18.4529C14.7791 18.1435 14.286 17.7159 13.8995 17.1992C13.6514 16.8675 13.7191 16.3975 14.0508 16.1494C14.3825 15.9013 14.8525 15.9691 15.1006 16.3007C15.3583 16.6452 15.687 16.9302 16.0645 17.1365C16.4421 17.3428 16.8595 17.4654 17.2886 17.4961C17.7177 17.5269 18.1484 17.465 18.5514 17.3146C18.9545 17.1643 19.3205 16.929 19.6246 16.6247L19.6247 16.6246L21.8699 14.3795C22.4136 13.8142 22.7144 13.0583 22.7076 12.2737C22.7008 11.4871 22.3853 10.7347 21.829 10.1785C21.2728 9.62226 20.5204 9.30675 19.7338 9.29992C18.9489 9.2931 18.1927 9.59415 17.6273 10.1384L16.3413 11.4168C16.0476 11.7089 15.5727 11.7075 15.2807 11.4138C14.9886 11.12 14.99 10.6451 15.2838 10.3531L16.5738 9.0706L16.5815 9.06301Z" fill="#646B72"/>
<path fill-rule="evenodd" clip-rule="evenodd" d="M12.9244 13.2799C13.529 13.0544 14.175 12.9615 14.8186 13.0076C15.4622 13.0537 16.0884 13.2377 16.6547 13.547C17.221 13.8564 17.7141 14.284 18.1006 14.8007C18.3487 15.1324 18.2809 15.6024 17.9493 15.8505C17.6176 16.0986 17.1476 16.0308 16.8995 15.6992C16.6418 15.3547 16.313 15.0696 15.9355 14.8634C15.558 14.6571 15.1405 14.5345 14.7115 14.5038C14.2824 14.473 13.8517 14.5349 13.4486 14.6853C13.0456 14.8356 12.6796 15.0709 12.3755 15.3752L10.1302 17.6204C9.58644 18.1857 9.28565 18.9416 9.29247 19.7262C9.29931 20.5128 9.61481 21.2652 10.171 21.8214C10.7273 22.3776 11.4797 22.6931 12.2663 22.7C13.0508 22.7068 13.8067 22.406 14.3721 21.8622L15.6497 20.5846C15.9426 20.2917 16.4175 20.2917 16.7104 20.5846C17.0033 20.8775 17.0033 21.3524 16.7104 21.6453L15.4279 22.9278L15.4186 22.9369C14.5699 23.7566 13.4331 24.2102 12.2533 24.1999C11.0734 24.1897 9.94471 23.7164 9.11038 22.8821C8.27604 22.0477 7.80278 20.9191 7.79253 19.7392C7.78228 18.5593 8.23585 17.4226 9.05556 16.5739L9.0647 16.5646L11.3146 14.3147C11.3146 14.3147 11.3146 14.3147 11.3146 14.3147C11.7708 13.8584 12.3199 13.5054 12.9244 13.2799Z" fill="#646B72"/>
</g>
<defs>
<clipPath id="clip0_9188_27349">
<rect width="18" height="18" fill="white" transform="translate(7 7)"/>
</clipPath>
</defs>
</svg>
