<svg width="32" height="32" viewBox="0 0 32 32" fill="none" xmlns="http://www.w3.org/2000/svg">
<path fill-rule="evenodd" clip-rule="evenodd" d="M18.835 8.79077C18.2378 8.79077 17.6651 9.028 17.2428 9.45027L10.3503 16.3428C9.64657 17.0465 9.25122 18.001 9.25122 18.9962C9.25122 19.9914 9.64657 20.9459 10.3503 21.6496C11.054 22.3533 12.0085 22.7487 13.0037 22.7487C13.9989 22.7487 14.9534 22.3533 15.6571 21.6496L22.5496 14.7571C22.8425 14.4642 23.3174 14.4642 23.6103 14.7571C23.9032 15.05 23.9032 15.5249 23.6103 15.8178L16.7178 22.7103C15.7328 23.6953 14.3968 24.2487 13.0037 24.2487C11.6107 24.2487 10.2747 23.6953 9.28964 22.7103C8.30461 21.7252 7.75122 20.3892 7.75122 18.9962C7.75122 17.6031 8.30461 16.2671 9.28964 15.2821L16.1821 8.38961C16.8857 7.68604 17.84 7.29077 18.835 7.29077C19.83 7.29077 20.7842 7.68604 21.4878 8.38961C22.1914 9.09318 22.5866 10.0474 22.5866 11.0424C22.5866 12.0374 22.1914 12.9917 21.4878 13.6953L14.5878 20.5878C14.1657 21.0099 13.5932 21.247 12.9962 21.247C12.3993 21.247 11.8268 21.0099 11.4046 20.5878C10.9825 20.1657 10.7454 19.5931 10.7454 18.9962C10.7454 18.3992 10.9825 17.8267 11.4046 17.4046L17.7725 11.0443C18.0655 10.7516 18.5404 10.7519 18.8331 11.0449C19.1258 11.338 19.1256 11.8129 18.8325 12.1056L12.4653 18.4653C12.3247 18.606 12.2454 18.7972 12.2454 18.9962C12.2454 19.1953 12.3245 19.3863 12.4653 19.5271C12.6061 19.6679 12.7971 19.747 12.9962 19.747C13.1954 19.747 13.3863 19.6679 13.5271 19.5271L20.4271 12.6346C20.8492 12.2124 21.0866 11.6395 21.0866 11.0424C21.0866 10.4453 20.8494 9.87254 20.4271 9.45027C20.0049 9.028 19.4322 8.79077 18.835 8.79077Z" fill="#646B72"/>
</svg>
