<svg width="18" height="18" viewBox="0 0 18 18" fill="none" xmlns="http://www.w3.org/2000/svg">
<path d="M2.25 7.5H15.75M5.25 11.25H5.2575M8.25 11.25H9.75M2.25 6C2.25 5.40326 2.48705 4.83097 2.90901 4.40901C3.33097 3.98705 3.90326 3.75 4.5 3.75H13.5C14.0967 3.75 14.669 3.98705 15.091 4.40901C15.5129 4.83097 15.75 5.40326 15.75 6V12C15.75 12.5967 15.5129 13.169 15.091 13.591C14.669 14.0129 14.0967 14.25 13.5 14.25H4.5C3.90326 14.25 3.33097 14.0129 2.90901 13.591C2.48705 13.169 2.25 12.5967 2.25 12V6Z" stroke="#646B72" stroke-linecap="round" stroke-linejoin="round"/>
</svg>
