<svg width="14" height="14" viewBox="0 0 14 14" fill="none" xmlns="http://www.w3.org/2000/svg">
<path d="M6.17458 6.17575C5.95582 6.39459 5.83296 6.69137 5.83301 7.00079C5.83307 7.31022 5.95604 7.60695 6.17488 7.82571C6.39371 8.04447 6.69049 8.16734 6.99992 8.16728C7.30934 8.16723 7.60607 8.04426 7.82483 7.82542M9.73058 9.72592C8.91231 10.2379 7.96522 10.5064 7 10.5C4.9 10.5 3.15 9.33333 1.75 7C2.492 5.76333 3.332 4.8545 4.27 4.2735M5.93833 3.605C6.28777 3.53426 6.64347 3.49908 7 3.5C9.1 3.5 10.85 4.66667 12.25 7C11.8615 7.6475 11.4456 8.20575 11.0028 8.67417M1.75 1.75L12.25 12.25" stroke="#212B36" stroke-linecap="round" stroke-linejoin="round"/>
</svg>
