<svg width="25" height="24" viewBox="0 0 25 24" fill="none" xmlns="http://www.w3.org/2000/svg">
<rect width="24" height="24" transform="translate(0.5)" fill="white"/>
<path fill-rule="evenodd" clip-rule="evenodd" d="M22.54 12.2624C22.54 11.447 22.4668 10.6629 22.3309 9.91016H11.5V14.3586H17.6891C17.4225 15.7961 16.6123 17.014 15.3943 17.8295V20.7149H19.1109C21.2855 18.7129 22.54 15.7647 22.54 12.2624Z" fill="#4285F4"/>
<path fill-rule="evenodd" clip-rule="evenodd" d="M11.5034 23.4986C14.6084 23.4986 17.2116 22.4688 19.1143 20.7125L15.3977 17.827C14.3679 18.517 13.0507 18.9247 11.5034 18.9247C8.50815 18.9247 5.97293 16.9018 5.06861 14.1836H1.22656V17.1631C3.11884 20.9215 7.00793 23.4986 11.5034 23.4986Z" fill="#34A853"/>
<path fill-rule="evenodd" clip-rule="evenodd" d="M5.06523 14.1855C4.83523 13.4955 4.70455 12.7584 4.70455 12.0005C4.70455 11.2425 4.83523 10.5055 5.06523 9.81548V6.83594H1.22318C0.444318 8.38844 0 10.1448 0 12.0005C0 13.8562 0.444318 15.6125 1.22318 17.165L5.06523 14.1855Z" fill="#FBBC05"/>
<path fill-rule="evenodd" clip-rule="evenodd" d="M11.5034 5.07386C13.1918 5.07386 14.7077 5.65409 15.8995 6.79364L19.1979 3.49523C17.2063 1.63955 14.6032 0.5 11.5034 0.5C7.00793 0.5 3.11884 3.07705 1.22656 6.83545L5.06861 9.815C5.97293 7.09682 8.50815 5.07386 11.5034 5.07386Z" fill="#EA4335"/>
</svg>
