<svg width="45" height="45" viewBox="0 0 45 45" fill="none" xmlns="http://www.w3.org/2000/svg">
<path d="M35.9989 3.89062C35.7352 4.25976 35.8231 4.44433 36.7899 5.55176C37.3963 6.26367 37.6864 6.65039 37.6249 6.71191C37.3172 7.01953 25.9618 15.7119 25.909 15.6768C25.8739 15.6592 24.7665 14.3672 23.4569 12.8115C22.1473 11.2559 21.0047 9.92871 20.9256 9.86719C20.8465 9.80566 20.6708 9.76172 20.5213 9.7793C20.3368 9.80566 17.8231 11.5547 12.5672 15.334C8.33971 18.3662 4.82408 20.915 4.76256 20.9941C4.48131 21.3545 4.75377 21.8906 5.2108 21.8906C5.38658 21.8906 7.48717 20.4229 12.9188 16.5293C17.0233 13.5762 20.4159 11.168 20.451 11.168C20.495 11.168 21.6463 12.4951 23.0174 14.1123C24.6698 16.0723 25.5751 17.0742 25.7157 17.1094C25.8651 17.1445 26.0321 17.1006 26.2606 16.9424C26.4364 16.8281 29.2577 14.666 32.5184 12.1436C35.7792 9.62988 38.4774 7.57324 38.5126 7.59082C38.5389 7.59961 38.9081 8.0039 39.3299 8.4873C40.2352 9.52441 40.3055 9.58594 40.6044 9.58594C41.0965 9.58594 41.1317 9.4541 41.3163 6.80859L41.4921 4.37402L41.3075 4.18945C41.1493 4.02246 40.9208 3.99609 39.0399 3.85547C36.2098 3.65332 36.1659 3.65332 35.9989 3.89062ZM39.8397 5.06836L40.2528 5.12109L40.244 5.56933C40.2352 5.82422 40.2088 6.37793 40.1737 6.81738L40.121 7.59961L38.9432 6.25488L37.7655 4.91015L38.5917 4.96289C39.0487 4.99804 39.6024 5.04199 39.8397 5.06836Z" fill="white"/>
<path d="M31.8155 14.6764C30.339 15.1246 29.7413 16.8737 30.6466 18.0953C30.8487 18.359 30.8575 18.403 30.7345 18.5348C30.128 19.2028 30.0753 20.5299 30.6202 21.2682L30.8312 21.5582L30.5675 21.9801C30.1017 22.736 30.128 23.7379 30.6378 24.485L30.8487 24.8014L30.6378 25.0826C30.0929 25.8297 30.0929 26.9196 30.6378 27.6666L30.8487 27.9479L30.6378 28.2643C30.128 29.0114 30.1017 30.0133 30.5675 30.7692L30.8312 31.191L30.6202 31.4811C30.0753 32.2194 30.128 33.5465 30.7345 34.2145C30.8575 34.3463 30.8487 34.3903 30.6466 34.6539C30.5323 34.8121 30.3917 35.0758 30.3302 35.2428C30.1192 35.8932 30.2862 36.9039 30.6817 37.3258L30.8575 37.5104L30.5675 37.9762C30.3038 38.4069 30.2775 38.5035 30.2775 39.1627C30.2775 39.8043 30.3038 39.9274 30.5411 40.3141C30.7081 40.5778 30.9718 40.8414 31.2355 41.0084L31.6661 41.2721L36.9923 41.2985C40.8331 41.316 42.4239 41.2985 42.6876 41.2194C43.1622 41.0875 43.7511 40.5865 43.9532 40.1383C44.2784 39.4264 44.1114 38.108 43.6544 37.7301C43.5314 37.6246 43.5489 37.5719 43.795 37.2203C44.0499 36.86 44.0763 36.7457 44.1114 36.0778C44.1378 35.3922 44.1202 35.3131 43.8653 34.8649L43.5929 34.3815L43.8653 33.8717C44.1114 33.4059 44.129 33.3092 44.1026 32.6412C44.0763 31.9996 44.0499 31.8854 43.795 31.525C43.5489 31.1735 43.5314 31.1207 43.6544 31.0153C43.9357 30.7867 44.1202 30.2155 44.1202 29.5826C44.1202 28.9498 43.9357 28.3785 43.6544 28.15C43.5314 28.0446 43.5489 27.9918 43.795 27.6403C44.0675 27.2535 44.0763 27.2008 44.0763 26.3746C44.0763 25.5485 44.0675 25.4957 43.795 25.1178C43.5226 24.7311 43.5226 24.7135 43.6808 24.5729C43.9884 24.2916 44.1466 23.7203 44.1026 22.9996C44.0763 22.4371 44.0323 22.2877 43.8038 21.9625L43.5401 21.5846L43.8038 21.2067C44.0148 20.9078 44.0763 20.7233 44.1026 20.2662C44.1554 19.528 44.0763 19.1764 43.8038 18.7633L43.5753 18.4293L43.8478 17.9283C44.0851 17.4977 44.1202 17.3395 44.1202 16.7858C44.1202 16.0211 43.9181 15.5201 43.4347 15.1246C42.8019 14.5973 42.7491 14.5973 37.1417 14.6061C34.3292 14.6061 31.9386 14.6412 31.8155 14.6764ZM42.4503 15.8717C42.8194 16.0651 42.9776 16.3375 42.9776 16.8033C42.9776 17.3043 42.7491 17.6295 42.2921 17.7614C42.09 17.8141 40.1827 17.8492 37.1505 17.8492C32.0353 17.8492 31.9825 17.8492 31.6134 17.4274C31.2091 16.9791 31.3849 16.153 31.9386 15.8805C32.3429 15.6783 42.0636 15.6696 42.4503 15.8717ZM42.6964 19.2555C43.1183 19.6774 43.1095 20.3365 42.6612 20.7584L42.4327 20.9694L37.2999 20.9957C32.8175 21.0133 32.1319 21.0045 31.9034 20.8815C31.3058 20.5739 31.2091 19.6949 31.7276 19.2291L31.9913 18.9918H37.212H42.4327L42.6964 19.2555ZM42.4415 22.2701C43.1534 22.6305 43.1886 23.7555 42.4855 24.0719C42.3273 24.151 40.8243 24.1774 37.1329 24.1774H31.9913L31.7276 23.9313C31.2267 23.483 31.297 22.6656 31.8507 22.3229C32.1056 22.1647 32.3868 22.1559 37.1769 22.1559C41.0177 22.1559 42.2833 22.1822 42.4415 22.2701ZM42.3976 25.443C42.8019 25.61 42.9776 25.9 42.9776 26.3746C42.9776 26.8492 42.8019 27.1393 42.3976 27.3063C41.9405 27.4996 32.3605 27.4908 31.9562 27.2975C31.3409 27.0074 31.1915 26.2428 31.6398 25.7242C31.7892 25.5572 32.0001 25.399 32.1056 25.3815C32.211 25.3639 34.505 25.3375 37.2032 25.3287C41.2198 25.3199 42.1603 25.3463 42.3976 25.443ZM42.5206 28.6949C42.7755 28.8268 42.9601 29.108 42.9864 29.4069C43.0216 29.8375 42.9601 30.0133 42.6788 30.2946L42.38 30.5934H37.2735C32.8702 30.5934 32.1232 30.5758 31.9034 30.4615C31.3058 30.1539 31.2091 29.275 31.7276 28.8092L31.9913 28.5719H37.1417C41.4044 28.5719 42.3273 28.5895 42.5206 28.6949ZM42.6612 31.9908C43.1095 32.4127 43.1183 33.0719 42.6964 33.4938L42.4327 33.7574H37.212H31.9913L31.7276 33.5114C31.2267 33.0631 31.297 32.2457 31.8507 31.903C32.1144 31.7447 32.3517 31.736 37.2823 31.7535L42.4327 31.7799L42.6612 31.9908ZM42.2921 34.9879C42.7491 35.1197 42.9776 35.4449 42.9776 35.9459C42.9776 36.4117 42.8194 36.6842 42.4503 36.8776C42.0636 37.0797 32.378 37.0709 31.9562 36.8776C31.1651 36.4996 31.2091 35.3922 32.0353 35.0231C32.3692 34.8737 41.7735 34.8473 42.2921 34.9879ZM42.6261 38.3893C43.1271 38.8463 43.1183 39.5231 42.6173 39.9449L42.3448 40.1735H37.256C31.6661 40.1735 31.7892 40.1822 31.5079 39.6461C31.4376 39.5055 31.3761 39.277 31.3761 39.1451C31.3761 38.8287 31.6749 38.3453 31.9298 38.2399C32.0353 38.1959 34.4171 38.1608 37.2384 38.1608L42.3624 38.152L42.6261 38.3893Z" fill="white"/>
<path d="M16.8398 21.0537C16.0049 21.3438 15.5391 22.0117 15.4863 22.9609C15.4424 23.6201 15.5654 24.0596 15.8818 24.4375C16.0928 24.6924 16.0928 24.7012 15.9346 24.9121C15.7852 25.1143 15.7148 25.1318 15.0732 25.1406C13.4385 25.1494 12.085 25.7119 10.9336 26.8545C9.94922 27.8213 9.4834 28.7354 9.18457 30.2559L9.14062 30.4932L5.81836 30.5195C2.15332 30.5459 2.12695 30.5547 1.50293 31.1436C1.08105 31.5479 0.878906 32.0312 0.878906 32.6816C0.878906 33.2705 1.03711 33.7627 1.33594 34.0791C1.50293 34.2637 1.51172 34.29 1.38867 34.4307C1.30957 34.5186 1.16016 34.7646 1.05469 34.9756C0.896484 35.3008 0.870117 35.4766 0.896484 36.0479C0.922852 36.6455 0.958008 36.7773 1.2041 37.1289C1.4502 37.4805 1.46777 37.5332 1.34473 37.6387C1.06348 37.8672 0.878906 38.4385 0.878906 39.0713C0.878906 39.792 1.06348 40.249 1.50293 40.6709C2.10938 41.2422 1.90723 41.2246 7.7959 41.2246H13.1396L13.5967 41.0137C14.7129 40.4863 15.1084 38.9746 14.4229 37.8672C14.1592 37.4453 14.1592 37.4277 14.3086 37.2256C14.4404 37.0498 14.5283 37.0234 15.0996 37.0234C15.6973 37.0234 15.7412 37.041 15.9082 37.2695L16.084 37.5244L15.8027 37.9287C15.5479 38.2891 15.5127 38.4121 15.4775 39.0273C15.46 39.6074 15.4863 39.792 15.6445 40.126C15.873 40.6006 16.4004 41.0752 16.8662 41.207C17.1035 41.2861 18.7207 41.3125 22.4648 41.3125H27.7295L28.1689 41.1016C28.6963 40.8555 28.9336 40.6094 29.1709 40.082C29.5049 39.3613 29.3555 38.2363 28.8545 37.6914C28.7227 37.5508 28.7314 37.5068 28.9424 37.208C29.2588 36.751 29.3555 36.4521 29.3555 35.9688C29.3555 35.4238 29.2412 35.0283 28.9512 34.6152C28.7314 34.3076 28.7227 34.2637 28.8545 34.123C29.4873 33.4199 29.4961 31.9785 28.8633 31.2842C28.749 31.1523 28.7666 31.0908 29.0215 30.6865C29.4961 29.9043 29.4521 28.7969 28.9248 28.1992L28.6699 27.918L28.916 27.6016C29.2236 27.2061 29.3555 26.8105 29.3555 26.248C29.3555 25.7998 29.1182 25.1494 28.8633 24.8682C28.7402 24.7363 28.7578 24.6836 29.0127 24.3232C29.25 23.9805 29.3027 23.8223 29.3379 23.2598C29.373 22.6709 29.3555 22.5479 29.1445 22.1084C28.8721 21.5723 28.5205 21.2559 27.958 21.0537C27.4131 20.8691 17.376 20.8604 16.8398 21.0537ZM27.6855 22.1963C28.0107 22.3633 28.2129 22.7412 28.2129 23.1719C28.2129 23.6201 27.7734 24.0508 27.2373 24.1299C27.0264 24.1562 24.6973 24.1738 22.0605 24.1562C17.6572 24.1299 17.2529 24.1211 17.042 23.9717C16.7607 23.7871 16.6113 23.4707 16.6113 23.0664C16.6113 22.6621 16.7344 22.4424 17.0771 22.2402C17.3496 22.0732 17.5605 22.0645 22.3945 22.0645C26.7275 22.0645 27.4658 22.082 27.6855 22.1963ZM27.5098 25.3428C27.8525 25.4658 28.2129 25.9316 28.2129 26.2744C28.2129 26.6084 28.0283 26.9072 27.6943 27.1357L27.3955 27.3379H23.6074H19.8193L19.2129 26.7666C18.7998 26.3799 18.3516 26.0635 17.8242 25.7998L17.042 25.4131L17.332 25.3252C17.7803 25.2021 27.1318 25.2109 27.5098 25.3428ZM16.1016 26.3799C17.4463 26.6611 18.7646 27.6807 19.3711 28.9199C19.9951 30.1943 20.083 31.3721 19.6436 32.6377C19.3711 33.4199 19.002 33.9912 18.3428 34.6064C16.4619 36.3643 13.5615 36.3115 11.7334 34.4922C9.81738 32.5762 9.80859 29.623 11.7246 27.7334C12.709 26.7578 13.7549 26.3096 15.0469 26.292C15.3721 26.2832 15.8467 26.3271 16.1016 26.3799ZM27.6855 28.6211C28.1689 28.9111 28.3359 29.4736 28.0811 29.9746C27.8174 30.4932 27.7383 30.502 24.2314 30.502H21.0322L20.9707 30.0537C20.9355 29.8076 20.8213 29.3594 20.707 29.043L20.4961 28.4805H23.9678C27.0264 28.4805 27.4658 28.498 27.6855 28.6211ZM9.17578 31.8379C9.34277 32.6553 9.44824 33.0596 9.58887 33.376L9.74707 33.7539H6.31934C3.42773 33.7539 2.83887 33.7363 2.60156 33.6221C2.03906 33.3584 1.8457 32.5938 2.21484 32.1279C2.5752 31.6621 2.68945 31.6533 6.03809 31.6445H9.14062L9.17578 31.8379ZM27.5098 31.7588C27.8525 31.8818 28.2129 32.3477 28.2129 32.6904C28.2129 33.0244 28.0283 33.3232 27.6943 33.5518C27.3955 33.7539 27.3955 33.7539 23.9238 33.7539C20.6631 33.7539 20.4609 33.7451 20.5225 33.5957C20.7598 33.0244 20.9355 32.4355 20.9795 32.0664L21.0322 31.6445L24.1172 31.6533C26.2705 31.6533 27.2988 31.6885 27.5098 31.7588ZM10.8984 35.3008C11.3467 35.7666 12.2783 36.3994 12.7705 36.5752C13.1396 36.707 13.1836 36.8037 12.9023 36.874C12.7881 36.9004 10.415 36.9092 7.62012 36.9004L2.53125 36.874L2.27637 36.584C2.08301 36.373 2.02148 36.2148 2.02148 35.9424C2.02148 35.4941 2.13574 35.2832 2.4873 35.0723C2.75098 34.9053 2.96191 34.8965 6.63574 34.8965H10.5117L10.8984 35.3008ZM27.6855 35.0371C28.1689 35.3271 28.3359 35.8896 28.0811 36.3906C27.7998 36.9268 27.9229 36.918 22.3945 36.9092C19.626 36.9092 17.2881 36.874 17.2002 36.8389C17.0684 36.7949 17.2002 36.6982 17.7803 36.4082C18.2725 36.1621 18.7207 35.8545 19.125 35.4766L19.7314 34.9053L23.5811 34.8965C27 34.8965 27.4658 34.9141 27.6855 35.0371ZM13.0957 38.1924C13.5703 38.4385 13.7549 39.0537 13.4912 39.5547C13.21 40.1084 13.4736 40.082 7.81348 40.082H2.6543L2.38184 39.8535C1.88086 39.4316 1.87207 38.7549 2.37305 38.2979L2.63672 38.0605H7.74316C12.1289 38.0605 12.876 38.0781 13.0957 38.1924ZM27.9141 38.4473C28.1689 38.7021 28.2129 38.8076 28.2129 39.1504C28.2129 39.4668 28.1602 39.6074 27.958 39.8359L27.7031 40.126L22.4561 40.1523L17.209 40.1699L16.9102 39.8711C16.6553 39.6162 16.6113 39.5107 16.6113 39.1592C16.6113 38.8076 16.6553 38.7021 16.9102 38.4473L17.209 38.1484H22.4121H27.6152L27.9141 38.4473Z" fill="white"/>
<path d="M14.6434 26.8301C14.5643 26.9355 14.5028 27.1289 14.5028 27.252C14.5028 27.4277 14.4061 27.5244 14.0633 27.7178C13.536 27.999 13.1317 28.5791 13.0438 29.1504C12.868 30.3545 13.5711 31.3564 14.7401 31.5762C15.5311 31.7168 15.8124 31.8662 15.9618 32.2266C16.0672 32.4727 16.076 32.6045 15.9969 32.8418C15.6805 33.791 14.3358 33.668 14.1776 32.6836C14.0809 32.0508 13.5711 31.7871 13.1844 32.1738C12.6922 32.666 13.3514 34.1689 14.1952 34.4766C14.4588 34.5645 14.5028 34.6172 14.5028 34.8721C14.5028 35.2061 14.828 35.6016 15.0917 35.6016C15.4168 35.6016 15.6454 35.3467 15.6454 34.9863C15.6454 34.6787 15.6717 34.6348 16.0409 34.459C16.867 34.0635 17.3417 33.0879 17.1571 32.1826C16.9549 31.2422 16.2958 30.6445 15.3026 30.5039C15.0213 30.4688 14.7049 30.3896 14.5995 30.3369C14.3885 30.2227 14.1512 29.8008 14.1512 29.5371C14.1512 29.0713 14.6522 28.5703 15.118 28.5703C15.5751 28.5703 16.0848 29.124 16.0848 29.6074C16.0848 29.8799 16.3221 30.0645 16.6561 30.0645C17.7196 30.0645 17.078 27.999 15.8915 27.5859C15.6981 27.5156 15.6454 27.4453 15.6454 27.2344C15.6454 26.7949 15.5047 26.6367 15.118 26.6367C14.8631 26.6367 14.7401 26.6895 14.6434 26.8301Z" fill="white"/>
</svg>
