<svg width="45" height="45" viewBox="0 0 45 45" fill="none" xmlns="http://www.w3.org/2000/svg">
<path d="M29.2854 1.47559C28.6877 1.69531 28.0813 2.21387 27.7473 2.80274C27.5364 3.16309 27.4748 3.40918 27.4397 3.90137L27.4045 4.52539L28.468 5.93164L29.5227 7.33789L29.5315 8.43653V9.53516L27.8528 12.2598C26.9299 13.7627 26.1565 15.0459 26.1301 15.1162C26.0862 15.3096 27.2551 16.0215 27.387 15.8809C27.4397 15.8193 28.2043 14.5977 29.092 13.1563L30.6916 10.5459H33.7502H36.8088L39.2258 14.4746C40.5618 16.6455 41.7307 18.6318 41.845 18.8955C42.1174 19.5723 42.1789 21.0313 41.968 21.7607C41.511 23.3516 40.3069 24.5732 38.6721 25.1006C38.2502 25.2324 37.7053 25.2588 34.2161 25.2939L30.2346 25.3291V26.0234V26.7266L34.4797 26.7002L38.7161 26.6738L39.4192 26.4277C41.2297 25.7861 42.592 24.4502 43.2512 22.6748C43.4973 22.0332 43.5412 21.7783 43.5764 20.8555C43.6203 19.5898 43.4797 18.7988 43.0315 17.876C42.8645 17.542 41.6604 15.5293 40.3508 13.4023L37.969 9.53516V8.43653L37.9778 7.33789L39.0237 5.94043C40.0608 4.56055 40.0784 4.53418 40.0784 4.07715C40.0784 3.06641 39.4368 2.06446 38.5139 1.60742C38.0745 1.3877 37.9162 1.36133 37.2043 1.36133H36.3957L35.0774 2.02051L33.759 2.6709L32.4143 2.02051C31.1575 1.39649 31.0432 1.36133 30.4192 1.33496C29.9446 1.31738 29.6194 1.36133 29.2854 1.47559ZM32.0715 3.51465C32.8713 3.91016 33.6096 4.21778 33.7502 4.21778C33.8909 4.21778 34.6291 3.91016 35.4289 3.51465C37.2131 2.62696 37.5823 2.60059 38.259 3.32129C38.6809 3.76074 38.6282 3.93653 37.7053 5.18457L36.8703 6.31836H33.7502H30.6301L29.7952 5.18457C29.1975 4.37598 28.969 3.98926 28.9778 3.83106C29.0129 3.33008 29.6721 2.82031 30.2873 2.81153C30.5686 2.81153 30.9817 2.96973 32.0715 3.51465ZM36.5627 8.43653V9.13965H33.7502H30.9377V8.43653V7.7334H33.7502H36.5627V8.43653Z" fill="#FF9F43"/>
<path d="M21.2508 2.80664L21.0222 3.50098L22.0242 3.83496C22.5779 4.01074 23.0261 4.18652 23.0261 4.21289C23.0261 4.23926 22.8064 4.37109 22.534 4.51172C19.9236 5.87402 17.6033 8.29102 16.2586 11.0244C15.5203 12.5273 15.5203 12.4043 16.2761 12.6855C16.6277 12.8086 16.9441 12.9141 16.9793 12.9141C17.0056 12.9141 17.2517 12.457 17.5154 11.9033C18.2273 10.4355 18.948 9.4248 20.1697 8.21191C21.2683 7.10449 22.3054 6.33105 23.4568 5.75098C23.9842 5.4873 24.0896 5.46094 24.0457 5.59277C23.9226 5.8916 23.2898 7.86035 23.2898 7.92188C23.2898 7.94824 23.5535 8.0625 23.8875 8.17676C24.2127 8.28223 24.5203 8.3877 24.573 8.40527C24.7049 8.45801 26.0144 4.55566 26.0144 4.11621C26.0144 3.90527 25.9529 3.74707 25.8211 3.62402C25.6629 3.4834 21.7693 2.10352 21.532 2.10352C21.5056 2.10352 21.3738 2.41992 21.2508 2.80664Z" fill="#FF9F43"/>
<path d="M15.1611 13.9921C15.1171 14.1151 14.8623 15.3808 14.8886 15.3895C14.9677 15.4159 16.3125 15.6181 16.33 15.6005C16.3652 15.5653 16.6113 14.4052 16.6113 14.2821C16.6113 14.2294 16.3476 14.1239 16.0224 14.036C15.3105 13.8602 15.2138 13.8515 15.1611 13.9921Z" fill="#FF9F43"/>
<path d="M33.0469 14.4492C33.0469 14.7744 33.0205 14.8447 32.8535 14.8887C32.5283 14.9678 32.0186 15.4424 31.8252 15.8467C31.7021 16.1104 31.6406 16.4004 31.6406 16.7695C31.6406 17.7715 31.9658 18.2021 33.1611 18.8174C34.2246 19.3535 34.3652 19.4678 34.3652 19.7666C34.3652 20.0654 34.2773 20.1885 33.9961 20.2939C33.6445 20.4258 33.2578 20.2676 33.1436 19.9424C33.0557 19.6875 33.0557 19.6875 32.3525 19.6875H31.6406V20.0127C31.6406 20.6455 32.2822 21.5332 32.8535 21.6738C33.0205 21.7178 33.0469 21.7881 33.0469 22.1133V22.5H33.75H34.4531V22.1133C34.4531 21.7881 34.4795 21.7178 34.6553 21.6738C34.9717 21.5947 35.4814 21.1201 35.6748 20.7158C35.7979 20.4521 35.8594 20.1621 35.8594 19.793C35.8594 18.791 35.5342 18.3604 34.3389 17.7451C33.2754 17.209 33.1348 17.0947 33.1348 16.7959C33.1348 16.4971 33.2227 16.374 33.5039 16.2686C33.8555 16.1367 34.2422 16.2949 34.3564 16.6201C34.4443 16.875 34.4443 16.875 35.1475 16.875H35.8594V16.5498C35.8594 15.917 35.2178 15.0293 34.6553 14.8887C34.4795 14.8447 34.4531 14.7744 34.4531 14.4492V14.0625H33.75H33.0469V14.4492Z" fill="#FF9F43"/>
<path d="M10.7227 17.0508C10.5469 17.2266 10.5469 17.3408 10.5469 23.3789V29.5312H11.25H11.9531V23.9062V18.2812H19.6875H27.4219V25.6641V33.0469H28.125H28.8281V25.1367C28.8281 17.3408 28.8281 17.2266 28.6523 17.0508C28.4766 16.875 28.3623 16.875 19.6875 16.875C11.0127 16.875 10.8984 16.875 10.7227 17.0508Z" fill="#FF9F43"/>
<path d="M37.2656 18.2812V18.9844H37.9688H38.6719V18.2812V17.5781H37.9688H37.2656V18.2812Z" fill="#FF9F43"/>
<path d="M16.3477 20.5664C16.1807 20.7334 16.1719 20.8564 16.1719 23.3789V26.0156H15.4688H14.7656V26.7188V27.4219H19.6875H24.6094V26.7188V26.0156H23.9062H23.2031V24.7852C23.2031 23.1416 23.2646 23.2031 21.6211 23.2031H20.3906V21.9727C20.3906 20.2852 20.5312 20.3906 18.2812 20.3906C16.6377 20.3906 16.5146 20.3994 16.3477 20.5664ZM18.9844 23.9062V26.0156H18.2812H17.5781V23.9062V21.7969H18.2812H18.9844V23.9062ZM21.7969 25.3125V26.0156H21.0938H20.3906V25.3125V24.6094H21.0938H21.7969V25.3125Z" fill="#FF9F43"/>
<path d="M35.7344 27.9473C34.3369 29.0898 32.2275 30.127 30.5576 30.5049L30.0391 30.6191L30.1006 30.9268C30.2588 31.7881 30.3467 32.0781 30.4346 32.0781C30.6279 32.0781 32.0605 31.665 32.7109 31.4189C34.082 30.9092 35.8926 29.8369 36.9912 28.8965L37.2725 28.6504L36.8066 28.123C36.5518 27.833 36.3057 27.5957 36.2529 27.5957C36.209 27.6045 35.9717 27.7627 35.7344 27.9473Z" fill="#FF9F43"/>
<path d="M14.0625 30.2344V30.9375H14.7656H15.4688V30.2344V29.5312H14.7656H14.0625V30.2344Z" fill="#FF9F43"/>
<path d="M16.875 30.2344V30.9375H21.0938H25.3125V30.2344V29.5312H21.0938H16.875V30.2344Z" fill="#FF9F43"/>
<path d="M1.40625 30.9338V31.637H3.16406H4.92188V35.8557V40.0745H3.16406H1.40625V40.7776V41.4807H3.69141C5.8623 41.4807 5.98535 41.4719 6.15234 41.3049C6.24902 41.2082 6.32812 41.0149 6.32812 40.8655C6.32812 40.7161 6.3457 40.6018 6.36328 40.6018C6.38965 40.6018 7.70801 41.1379 9.29004 41.7971C11.0039 42.509 12.5859 43.1067 13.1836 43.2649C14.168 43.5286 14.2471 43.5373 16.1279 43.5373C17.9561 43.5461 18.1143 43.5286 19.002 43.3088C20.0391 43.0452 31.2715 38.8 31.8867 38.4397C32.291 38.2024 32.7568 37.6223 32.9326 37.1477C32.9854 36.9895 33.0381 36.5676 33.0381 36.2073C33.0469 35.1262 32.5459 34.3 31.5879 33.8254C31.2451 33.6584 31.0166 33.6145 30.498 33.6145C29.8564 33.6145 29.7773 33.6409 27.5098 34.6077C26.2266 35.1614 25.1279 35.6272 25.0752 35.6536C24.9961 35.6887 24.9609 35.5745 24.9609 35.2756C24.9521 34.467 24.416 33.6672 23.625 33.2717L23.168 33.0432H20.2236C18.5977 33.0344 17.0156 33.008 16.6992 32.9641C16.3213 32.9114 15.7764 32.7356 15.1172 32.4455C13.8252 31.8743 12.4893 31.4348 11.2852 31.1887C10.5293 31.0393 9.91406 30.9866 8.33203 30.9514C6.44238 30.9162 6.32812 30.9075 6.32812 30.7493C6.32812 30.6526 6.24902 30.5032 6.15234 30.4065C5.98535 30.2395 5.8623 30.2307 3.69141 30.2307H1.40625V30.9338ZM8.94727 32.428C10.916 32.5598 12.6562 32.9993 14.4141 33.7903C15.873 34.4582 15.8379 34.4495 19.2832 34.4495C21.1201 34.4495 22.5 34.4846 22.6934 34.5373C23.7041 34.8186 23.7041 36.1897 22.6934 36.4709C22.4912 36.5237 20.7773 36.5588 18.2197 36.5588H14.0625V37.262V37.9651H18.6592C21.7354 37.9651 23.3613 37.9299 23.5986 37.8684C23.792 37.8157 25.3916 37.1565 27.1494 36.4094C30.7178 34.8977 30.7002 34.8977 31.2627 35.4602C31.5176 35.7151 31.5527 35.8118 31.5527 36.1985C31.5527 37.0598 31.7373 36.9631 25.2246 39.4416C22.0518 40.6457 19.1162 41.718 18.6943 41.8323C17.71 42.0784 16.3828 42.175 15.3105 42.0871C13.7285 41.9553 13.1748 41.7795 9.30762 40.1623L6.37207 38.9407L6.3457 35.6448L6.32812 32.3401H7.00488C7.38281 32.3401 8.25293 32.384 8.94727 32.428Z" fill="#FF9F43"/>
</svg>
