<svg width="32" height="32" viewBox="0 0 32 32" fill="none" xmlns="http://www.w3.org/2000/svg">
<path d="M12.5312 19.5856L13.4688 18.4141L10.4507 15.9999L13.4688 13.5856L12.5312 12.4141L8.78125 15.4141C8.6035 15.5566 8.5 15.7719 8.5 15.9999C8.5 16.2279 8.6035 16.4431 8.78125 16.5856L12.5312 19.5856ZM19.4688 12.4141L18.5312 13.5856L21.5492 15.9999L18.5312 18.4141L19.4688 19.5856L23.2188 16.5856C23.3965 16.4431 23.5 16.2279 23.5 15.9999C23.5 15.7719 23.3965 15.5566 23.2188 15.4141L19.4688 12.4141Z" fill="#646B72"/>
<path d="M18.232 9.41218L15.2324 22.9122L13.7674 22.5867L16.767 9.08667L18.232 9.41218Z" fill="#646B72"/>
</svg>
