<svg width="16" height="16" viewBox="0 0 16 16" fill="none" xmlns="http://www.w3.org/2000/svg">
<path d="M2.66667 3.33341C2.66667 3.1566 2.73691 2.98703 2.86193 2.86201C2.98695 2.73699 3.15652 2.66675 3.33333 2.66675H6C6.17681 2.66675 6.34638 2.73699 6.47141 2.86201C6.59643 2.98703 6.66667 3.1566 6.66667 3.33341V6.00008C6.66667 6.17689 6.59643 6.34646 6.47141 6.47149C6.34638 6.59651 6.17681 6.66675 6 6.66675H3.33333C3.15652 6.66675 2.98695 6.59651 2.86193 6.47149C2.73691 6.34646 2.66667 6.17689 2.66667 6.00008V3.33341Z" stroke="#646B72" stroke-linecap="round" stroke-linejoin="round"/>
<path d="M9.33333 3.33341C9.33333 3.1566 9.40357 2.98703 9.5286 2.86201C9.65362 2.73699 9.82319 2.66675 10 2.66675H12.6667C12.8435 2.66675 13.013 2.73699 13.1381 2.86201C13.2631 2.98703 13.3333 3.1566 13.3333 3.33341V6.00008C13.3333 6.17689 13.2631 6.34646 13.1381 6.47149C13.013 6.59651 12.8435 6.66675 12.6667 6.66675H10C9.82319 6.66675 9.65362 6.59651 9.5286 6.47149C9.40357 6.34646 9.33333 6.17689 9.33333 6.00008V3.33341Z" stroke="#646B72" stroke-linecap="round" stroke-linejoin="round"/>
<path d="M2.66667 10.0001C2.66667 9.82327 2.73691 9.6537 2.86193 9.52868C2.98695 9.40365 3.15652 9.33341 3.33333 9.33341H6C6.17681 9.33341 6.34638 9.40365 6.47141 9.52868C6.59643 9.6537 6.66667 9.82327 6.66667 10.0001V12.6667C6.66667 12.8436 6.59643 13.0131 6.47141 13.1382C6.34638 13.2632 6.17681 13.3334 6 13.3334H3.33333C3.15652 13.3334 2.98695 13.2632 2.86193 13.1382C2.73691 13.0131 2.66667 12.8436 2.66667 12.6667V10.0001Z" stroke="#646B72" stroke-linecap="round" stroke-linejoin="round"/>
<path d="M9.33333 10.0001C9.33333 9.82327 9.40357 9.6537 9.5286 9.52868C9.65362 9.40365 9.82319 9.33341 10 9.33341H12.6667C12.8435 9.33341 13.013 9.40365 13.1381 9.52868C13.2631 9.6537 13.3333 9.82327 13.3333 10.0001V12.6667C13.3333 12.8436 13.2631 13.0131 13.1381 13.1382C13.013 13.2632 12.8435 13.3334 12.6667 13.3334H10C9.82319 13.3334 9.65362 13.2632 9.5286 13.1382C9.40357 13.0131 9.33333 12.8436 9.33333 12.6667V10.0001Z" stroke="#646B72" stroke-linecap="round" stroke-linejoin="round"/>
</svg>
