<svg width="16" height="16" viewBox="0 0 16 16" fill="none" xmlns="http://www.w3.org/2000/svg">
<path d="M2.66667 3.33317C2.66667 3.15636 2.73691 2.98679 2.86193 2.86177C2.98695 2.73674 3.15652 2.6665 3.33333 2.6665H6C6.17681 2.6665 6.34638 2.73674 6.47141 2.86177C6.59643 2.98679 6.66667 3.15636 6.66667 3.33317V5.99984C6.66667 6.17665 6.59643 6.34622 6.47141 6.47124C6.34638 6.59627 6.17681 6.6665 6 6.6665H3.33333C3.15652 6.6665 2.98695 6.59627 2.86193 6.47124C2.73691 6.34622 2.66667 6.17665 2.66667 5.99984V3.33317Z" stroke="#FE9F43" stroke-linecap="round" stroke-linejoin="round"/>
<path d="M9.33333 3.33317C9.33333 3.15636 9.40357 2.98679 9.5286 2.86177C9.65362 2.73674 9.82319 2.6665 10 2.6665H12.6667C12.8435 2.6665 13.013 2.73674 13.1381 2.86177C13.2631 2.98679 13.3333 3.15636 13.3333 3.33317V5.99984C13.3333 6.17665 13.2631 6.34622 13.1381 6.47124C13.013 6.59627 12.8435 6.6665 12.6667 6.6665H10C9.82319 6.6665 9.65362 6.59627 9.5286 6.47124C9.40357 6.34622 9.33333 6.17665 9.33333 5.99984V3.33317Z" stroke="#FE9F43" stroke-linecap="round" stroke-linejoin="round"/>
<path d="M2.66667 9.99984C2.66667 9.82303 2.73691 9.65346 2.86193 9.52843C2.98695 9.40341 3.15652 9.33317 3.33333 9.33317H6C6.17681 9.33317 6.34638 9.40341 6.47141 9.52843C6.59643 9.65346 6.66667 9.82303 6.66667 9.99984V12.6665C6.66667 12.8433 6.59643 13.0129 6.47141 13.1379C6.34638 13.2629 6.17681 13.3332 6 13.3332H3.33333C3.15652 13.3332 2.98695 13.2629 2.86193 13.1379C2.73691 13.0129 2.66667 12.8433 2.66667 12.6665V9.99984Z" stroke="#FE9F43" stroke-linecap="round" stroke-linejoin="round"/>
<path d="M9.33333 9.99984C9.33333 9.82303 9.40357 9.65346 9.5286 9.52843C9.65362 9.40341 9.82319 9.33317 10 9.33317H12.6667C12.8435 9.33317 13.013 9.40341 13.1381 9.52843C13.2631 9.65346 13.3333 9.82303 13.3333 9.99984V12.6665C13.3333 12.8433 13.2631 13.0129 13.1381 13.1379C13.013 13.2629 12.8435 13.3332 12.6667 13.3332H10C9.82319 13.3332 9.65362 13.2629 9.5286 13.1379C9.40357 13.0129 9.33333 12.8433 9.33333 12.6665V9.99984Z" stroke="#FE9F43" stroke-linecap="round" stroke-linejoin="round"/>
</svg>
