<svg width="16" height="16" viewBox="0 0 16 16" fill="none" xmlns="http://www.w3.org/2000/svg">
<path d="M10 10L12.2333 12.2333M6.00002 10L3.76668 12.2333M3.76668 3.76666L6.00002 6M12.2333 3.76666L10 6M5.33333 8C5.33333 8.70724 5.61428 9.38552 6.11438 9.88562C6.61448 10.3857 7.29276 10.6667 8 10.6667C8.70724 10.6667 9.38552 10.3857 9.88562 9.88562C10.3857 9.38552 10.6667 8.70724 10.6667 8C10.6667 7.29276 10.3857 6.61448 9.88562 6.11438C9.38552 5.61428 8.70724 5.33333 8 5.33333C7.29276 5.33333 6.61448 5.61428 6.11438 6.11438C5.61428 6.61448 5.33333 7.29276 5.33333 8ZM2 8C2 8.78793 2.15519 9.56815 2.45672 10.2961C2.75825 11.0241 3.20021 11.6855 3.75736 12.2426C4.31451 12.7998 4.97595 13.2417 5.7039 13.5433C6.43185 13.8448 7.21207 14 8 14C8.78793 14 9.56815 13.8448 10.2961 13.5433C11.0241 13.2417 11.6855 12.7998 12.2426 12.2426C12.7998 11.6855 13.2417 11.0241 13.5433 10.2961C13.8448 9.56815 14 8.78793 14 8C14 7.21207 13.8448 6.43185 13.5433 5.7039C13.2417 4.97595 12.7998 4.31451 12.2426 3.75736C11.6855 3.20021 11.0241 2.75825 10.2961 2.45672C9.56815 2.15519 8.78793 2 8 2C7.21207 2 6.43185 2.15519 5.7039 2.45672C4.97595 2.75825 4.31451 3.20021 3.75736 3.75736C3.20021 4.31451 2.75825 4.97595 2.45672 5.7039C2.15519 6.43185 2 7.21207 2 8Z" stroke="#FE9F43" stroke-width="1.5" stroke-linecap="round" stroke-linejoin="round"/>
</svg>
