<svg width="14" height="14" viewBox="0 0 14 14" fill="none" xmlns="http://www.w3.org/2000/svg">
<path d="M1.75 4.08332C1.75 3.7739 1.87292 3.47716 2.09171 3.25837C2.3105 3.03957 2.60725 2.91666 2.91667 2.91666H11.0833C11.3928 2.91666 11.6895 3.03957 11.9083 3.25837C12.1271 3.47716 12.25 3.7739 12.25 4.08332M1.75 4.08332V9.91666C1.75 10.2261 1.87292 10.5228 2.09171 10.7416C2.3105 10.9604 2.60725 11.0833 2.91667 11.0833H11.0833C11.3928 11.0833 11.6895 10.9604 11.9083 10.7416C12.1271 10.5228 12.25 10.2261 12.25 9.91666V4.08332M1.75 4.08332L7 7.58332L12.25 4.08332" stroke="#212B36" stroke-linecap="round" stroke-linejoin="round"/>
</svg>
