<svg width="32" height="32" viewBox="0 0 32 32" fill="none" xmlns="http://www.w3.org/2000/svg">
<path d="M10.9615 16.048C10.6405 16.294 10.4215 16.5047 10.3053 16.6862C10.189 16.8663 10.1185 17.0597 10.096 17.2622H12.1053V16.7013H11.0598C11.1205 16.6405 11.1738 16.588 11.2188 16.5505C11.2652 16.513 11.3553 16.444 11.4895 16.348C11.7168 16.1845 11.8728 16.033 11.959 15.895C12.046 15.7555 12.0887 15.6137 12.0887 15.4615C12.0887 15.3197 12.0512 15.1893 11.9755 15.0775C11.9005 14.9628 11.7978 14.8765 11.6665 14.8217C11.536 14.7648 11.3522 14.7385 11.1167 14.7385C10.8917 14.7385 10.714 14.767 10.5872 14.824C10.4582 14.8825 10.3608 14.9665 10.2903 15.0775C10.2198 15.1848 10.171 15.337 10.1447 15.5305L10.8152 15.5875C10.834 15.4465 10.8708 15.3498 10.9255 15.292C10.9795 15.2372 11.05 15.211 11.1348 15.211C11.2172 15.211 11.2847 15.2372 11.3387 15.292C11.3935 15.3452 11.4198 15.409 11.4198 15.4855C11.4198 15.5538 11.392 15.628 11.3387 15.7083C11.2832 15.7847 11.158 15.8988 10.9615 16.048ZM11.0027 20.8375C10.9172 20.8375 10.8467 20.8105 10.7912 20.7587C10.7357 20.7062 10.6953 20.6125 10.6698 20.4752L10 20.5637C10.0443 20.7167 10.1065 20.8427 10.1882 20.9432C10.27 21.043 10.3743 21.1195 10.501 21.1727C10.627 21.2245 10.8003 21.25 11.02 21.25C11.245 21.25 11.4258 21.2148 11.5638 21.145C11.7025 21.073 11.8075 20.974 11.8817 20.8428C11.9552 20.7115 11.9913 20.5773 11.9913 20.4347C11.9913 20.3208 11.9695 20.2233 11.9252 20.14C11.8802 20.0598 11.8187 19.9938 11.7385 19.9443C11.689 19.9128 11.6178 19.8857 11.524 19.8617C11.6403 19.798 11.725 19.7245 11.7827 19.6375C11.8397 19.5513 11.8675 19.4575 11.8675 19.3502C11.8675 19.171 11.7978 19.0225 11.6568 18.9032C11.5165 18.784 11.2893 18.7248 10.975 18.7248C10.7013 18.7248 10.489 18.7788 10.3398 18.889C10.1898 18.9963 10.0892 19.1538 10.0367 19.3585L10.6698 19.4718C10.687 19.3503 10.72 19.2663 10.7695 19.2183C10.819 19.1702 10.8827 19.1448 10.9622 19.1448C11.0395 19.1448 11.0995 19.1687 11.143 19.2115C11.1873 19.2565 11.2083 19.3158 11.2083 19.39C11.2083 19.468 11.1797 19.5348 11.1205 19.5925C11.0612 19.6503 10.9878 19.6765 10.9008 19.6765C10.8798 19.6765 10.8513 19.6735 10.8138 19.6683L10.78 20.155C10.8722 20.128 10.945 20.113 10.9967 20.113C11.0957 20.113 11.1745 20.1438 11.2315 20.2075C11.2893 20.269 11.3177 20.3567 11.3177 20.4715C11.3177 20.581 11.2878 20.671 11.2285 20.737C11.1685 20.8022 11.0935 20.8375 11.0027 20.8375ZM11.7137 13.2752V10.75H11.1595C11.0883 10.906 10.9892 11.0372 10.864 11.1422C10.738 11.2487 10.561 11.3388 10.333 11.416V11.9815C10.4875 11.9328 10.6158 11.8818 10.7185 11.8285C10.8213 11.7768 10.9263 11.707 11.0358 11.6215V13.276H11.7137V13.2752ZM13.75 11.5H22V13H13.75V11.5ZM13.75 15.25H22V16.75H13.75V15.25ZM13.75 19H22V20.5H13.75V19Z" fill="#646B72"/>
</svg>
