<svg width="14" height="14" viewBox="0 0 14 14" fill="none" xmlns="http://www.w3.org/2000/svg">
<g clip-path="url(#clip0_9251_172)">
<path d="M2.33337 6.99984C2.33337 7.15455 2.39483 7.30292 2.50423 7.41232C2.61362 7.52171 2.762 7.58317 2.91671 7.58317C3.07142 7.58317 3.21979 7.52171 3.32919 7.41232C3.43858 7.30292 3.50004 7.15455 3.50004 6.99984C3.50004 6.84513 3.43858 6.69675 3.32919 6.58736C3.21979 6.47796 3.07142 6.4165 2.91671 6.4165C2.762 6.4165 2.61362 6.47796 2.50423 6.58736C2.39483 6.69675 2.33337 6.84513 2.33337 6.99984Z" fill="#646B72" stroke="#646B72" stroke-linecap="round" stroke-linejoin="round"/>
<path d="M6.41663 6.99984C6.41663 7.15455 6.47808 7.30292 6.58748 7.41232C6.69688 7.52171 6.84525 7.58317 6.99996 7.58317C7.15467 7.58317 7.30304 7.52171 7.41244 7.41232C7.52183 7.30292 7.58329 7.15455 7.58329 6.99984C7.58329 6.84513 7.52183 6.69675 7.41244 6.58736C7.30304 6.47796 7.15467 6.4165 6.99996 6.4165C6.84525 6.4165 6.69688 6.47796 6.58748 6.58736C6.47808 6.69675 6.41663 6.84513 6.41663 6.99984Z" fill="#646B72" stroke="#646B72" stroke-linecap="round" stroke-linejoin="round"/>
<path d="M10.5 6.99984C10.5 7.15455 10.5615 7.30292 10.6709 7.41232C10.7803 7.52171 10.9286 7.58317 11.0833 7.58317C11.238 7.58317 11.3864 7.52171 11.4958 7.41232C11.6052 7.30292 11.6667 7.15455 11.6667 6.99984C11.6667 6.84513 11.6052 6.69675 11.4958 6.58736C11.3864 6.47796 11.238 6.4165 11.0833 6.4165C10.9286 6.4165 10.7803 6.47796 10.6709 6.58736C10.5615 6.69675 10.5 6.84513 10.5 6.99984Z" fill="#646B72" stroke="#646B72" stroke-linecap="round" stroke-linejoin="round"/>
</g>
<defs>
<clipPath id="clip0_9251_172">
<rect width="14" height="14" fill="white"/>
</clipPath>
</defs>
</svg>
