<svg width="16" height="16" viewBox="0 0 16 16" fill="none" xmlns="http://www.w3.org/2000/svg">
<path d="M13.3334 7.33346C13.1704 6.16028 12.6261 5.07324 11.7845 4.23979C10.9429 3.40635 9.85059 2.87274 8.67586 2.72116C7.50114 2.56959 6.30916 2.80845 5.28355 3.40096C4.25794 3.99347 3.45558 4.90675 3.00008 6.00013M2.66675 3.33346V6.00013H5.33341M2.66675 8.66679C2.82979 9.83998 3.37404 10.927 4.21566 11.7605C5.05728 12.5939 6.14958 13.1275 7.3243 13.2791C8.49902 13.4307 9.691 13.1918 10.7166 12.5993C11.7422 12.0068 12.5446 11.0935 13.0001 10.0001M13.3334 12.6668V10.0001H10.6667" stroke="#212B36" stroke-linecap="round" stroke-linejoin="round"/>
</svg>
