<svg width="14" height="14" viewBox="0 0 14 14" fill="none" xmlns="http://www.w3.org/2000/svg">
<path d="M11.995 1.94841C11.8246 1.83233 11.6059 1.81483 11.4181 1.90233L1.50139 6.569C1.2943 6.667 1.16364 6.87641 1.16655 7.10508C1.17005 7.33375 1.30655 7.53966 1.51655 7.63125L4.66655 9.00966V12.9308L8.07089 10.4995L10.8499 11.7152C10.9246 11.7484 11.0045 11.7642 11.0832 11.7642C11.1888 11.7642 11.2932 11.7356 11.3866 11.679C11.5487 11.5804 11.6531 11.4089 11.666 11.2193L12.2493 2.46933C12.2621 2.26283 12.1659 2.06508 11.995 1.94841ZM10.5565 10.3134L7.48288 8.96825L9.33322 5.3475L4.8713 7.82666L3.16097 7.07825L11.0191 3.37991L10.5565 10.3134Z" fill="#646B72"/>
</svg>
