<svg width="32" height="32" viewBox="0 0 32 32" fill="none" xmlns="http://www.w3.org/2000/svg">
<path d="M16 8.5C11.8645 8.5 8.5 11.8645 8.5 16C8.5 20.1355 11.8645 23.5 16 23.5C20.1355 23.5 23.5 20.1355 23.5 16C23.5 11.8645 20.1355 8.5 16 8.5ZM16 22C12.6918 22 10 19.3082 10 16C10 12.6918 12.6918 10 16 10C19.3082 10 22 12.6918 22 16C22 19.3082 19.3082 22 16 22Z" fill="#646B72"/>
<path d="M18.1217 18.121C17.9829 18.259 17.8337 18.3828 17.6777 18.4878C17.5149 18.5973 17.3439 18.6903 17.1677 18.7645C16.9847 18.8418 16.7957 18.9003 16.6059 18.9393C16.2077 19.0203 15.7907 19.0203 15.3939 18.9393C15.2034 18.9003 15.0144 18.8418 14.8314 18.7645C14.6559 18.6903 14.4842 18.5973 14.3222 18.4878C14.1654 18.382 14.0162 18.259 13.8774 18.121C13.7417 17.9853 13.6179 17.836 13.5114 17.677L12.2679 18.5163C12.4292 18.7548 12.6144 18.979 12.8184 19.183C13.0232 19.3878 13.2474 19.573 13.4837 19.7313C13.7259 19.8948 13.9832 20.0343 14.2487 20.146C14.5224 20.2615 14.8067 20.35 15.0947 20.4085C15.3917 20.4693 15.6969 20.5 15.9999 20.5C16.3029 20.5 16.6082 20.4693 16.9059 20.4085C17.1932 20.35 17.4774 20.2615 17.7512 20.146C18.0167 20.0343 18.2732 19.8948 18.5169 19.7313C18.7517 19.5723 18.9759 19.3878 19.1814 19.183C19.3854 18.9798 19.5714 18.7548 19.7319 18.5163L18.4884 17.677C18.3812 17.836 18.2574 17.9853 18.1217 18.121Z" fill="#646B72"/>
<path d="M13.375 16C13.9963 16 14.5 15.4963 14.5 14.875C14.5 14.2537 13.9963 13.75 13.375 13.75C12.7537 13.75 12.25 14.2537 12.25 14.875C12.25 15.4963 12.7537 16 13.375 16Z" fill="#646B72"/>
<path d="M18.6198 15.9895C19.2382 15.9895 19.7395 15.4882 19.7395 14.8698C19.7395 14.2513 19.2382 13.75 18.6198 13.75C18.0013 13.75 17.5 14.2513 17.5 14.8698C17.5 15.4882 18.0013 15.9895 18.6198 15.9895Z" fill="#646B72"/>
</svg>
