<svg width="32" height="32" viewBox="0 0 32 32" fill="none" xmlns="http://www.w3.org/2000/svg">
<path fill-rule="evenodd" clip-rule="evenodd" d="M8.5 11.5C8.5 11.0858 8.83579 10.75 9.25 10.75H22.75C23.1642 10.75 23.5 11.0858 23.5 11.5C23.5 11.9142 23.1642 12.25 22.75 12.25H9.25C8.83579 12.25 8.5 11.9142 8.5 11.5Z" fill="#646B72"/>
<path fill-rule="evenodd" clip-rule="evenodd" d="M14.5 9.25C14.3011 9.25 14.1103 9.32902 13.9697 9.46967C13.829 9.61032 13.75 9.80109 13.75 10V10.75H18.25V10C18.25 9.80109 18.171 9.61032 18.0303 9.46967C17.8897 9.32902 17.6989 9.25 17.5 9.25H14.5ZM19.75 10.75V10C19.75 9.40326 19.5129 8.83097 19.091 8.40901C18.669 7.98705 18.0967 7.75 17.5 7.75H14.5C13.9033 7.75 13.331 7.98705 12.909 8.40901C12.4871 8.83097 12.25 9.40326 12.25 10V10.75H10.75C10.3358 10.75 10 11.0858 10 11.5V22C10 22.5967 10.2371 23.169 10.659 23.591C11.081 24.0129 11.6533 24.25 12.25 24.25H19.75C20.3467 24.25 20.919 24.0129 21.341 23.591C21.7629 23.169 22 22.5967 22 22V11.5C22 11.0858 21.6642 10.75 21.25 10.75H19.75ZM11.5 12.25V22C11.5 22.1989 11.579 22.3897 11.7197 22.5303C11.8603 22.671 12.0511 22.75 12.25 22.75H19.75C19.9489 22.75 20.1397 22.671 20.2803 22.5303C20.421 22.3897 20.5 22.1989 20.5 22V12.25H11.5Z" fill="#646B72"/>
<path fill-rule="evenodd" clip-rule="evenodd" d="M14.5 14.5C14.9142 14.5 15.25 14.8358 15.25 15.25V19.75C15.25 20.1642 14.9142 20.5 14.5 20.5C14.0858 20.5 13.75 20.1642 13.75 19.75V15.25C13.75 14.8358 14.0858 14.5 14.5 14.5Z" fill="#646B72"/>
<path fill-rule="evenodd" clip-rule="evenodd" d="M17.5 14.5C17.9142 14.5 18.25 14.8358 18.25 15.25V19.75C18.25 20.1642 17.9142 20.5 17.5 20.5C17.0858 20.5 16.75 20.1642 16.75 19.75V15.25C16.75 14.8358 17.0858 14.5 17.5 14.5Z" fill="#646B72"/>
</svg>
