<svg width="12" height="12" viewBox="0 0 12 12" fill="none" xmlns="http://www.w3.org/2000/svg">
<path d="M10.5 5.50024C10.3674 5.50024 10.2402 5.55292 10.1464 5.64669C10.0527 5.74046 10 5.86764 10 6.00024C10.006 6.93676 9.68515 7.84604 9.09283 8.57147C8.50051 9.2969 7.67377 9.79308 6.75498 9.97455C5.8362 10.156 4.88289 10.0114 4.05925 9.56563C3.23561 9.11986 2.5932 8.40083 2.24266 7.53237C1.89212 6.66391 1.8554 5.7004 2.13881 4.80778C2.42222 3.91516 3.00804 3.14931 3.79535 2.64213C4.58267 2.13496 5.5222 1.9182 6.45213 2.0292C7.38206 2.1402 8.24418 2.572 8.89 3.25024H7.69C7.55739 3.25024 7.43022 3.30292 7.33645 3.39669C7.24268 3.49046 7.19 3.61764 7.19 3.75024C7.19 3.88285 7.24268 4.01003 7.33645 4.1038C7.43022 4.19757 7.55739 4.25024 7.69 4.25024H9.955C10.0876 4.25024 10.2148 4.19757 10.3086 4.1038C10.4023 4.01003 10.455 3.88285 10.455 3.75024V1.50024C10.455 1.36764 10.4023 1.24046 10.3086 1.14669C10.2148 1.05292 10.0876 1.00024 9.955 1.00024C9.82239 1.00024 9.69522 1.05292 9.60145 1.14669C9.50768 1.24046 9.455 1.36764 9.455 1.50024V2.38524C8.62234 1.58927 7.54038 1.10522 6.39201 1.01491C5.24364 0.924597 4.09932 1.23357 3.15246 1.88959C2.20561 2.54561 1.51431 3.50845 1.19542 4.61534C0.876525 5.72223 0.949607 6.90528 1.40231 7.96451C1.855 9.02374 2.65955 9.89417 3.67995 10.4287C4.70035 10.9632 5.874 11.1289 7.00252 10.898C8.13104 10.667 9.1452 10.0535 9.87357 9.16108C10.6019 8.26868 10.9998 7.15216 11 6.00024C11 5.86764 10.9473 5.74046 10.8536 5.64669C10.7598 5.55292 10.6326 5.50024 10.5 5.50024Z" fill="white"/>
</svg>
