<svg width="12" height="12" viewBox="0 0 12 12" fill="none" xmlns="http://www.w3.org/2000/svg">
<path d="M10.5 8H3.5C3.36739 8 3.24021 7.94732 3.14645 7.85355C3.05268 7.75979 3 7.63261 3 7.5C3 7.36739 3.05268 7.24021 3.14645 7.14645C3.24021 7.05268 3.36739 7 3.5 7H8.72C9.05433 7.00002 9.37908 6.88835 9.64268 6.68271C9.90629 6.47708 10.0936 6.18928 10.175 5.865L11 2.62C11.0187 2.5462 11.0204 2.46911 11.0048 2.39459C10.9892 2.32007 10.9567 2.25009 10.91 2.19C10.8614 2.12837 10.7989 2.07905 10.7277 2.04604C10.6565 2.01303 10.5785 1.99726 10.5 2H3.38C3.27684 1.70823 3.08596 1.4555 2.83353 1.27647C2.5811 1.09744 2.27947 1.00087 1.97 1H1.5C1.36739 1 1.24021 1.05268 1.14645 1.14645C1.05268 1.24021 1 1.36739 1 1.5C1 1.63261 1.05268 1.75979 1.14645 1.85355C1.24021 1.94732 1.36739 2 1.5 2H1.97C2.08422 1.99667 2.19613 2.03257 2.2871 2.10171C2.37808 2.17085 2.44262 2.26906 2.47 2.38L2.5 2.62L3.365 6C2.96718 6.0179 2.59276 6.19311 2.32411 6.48707C2.05546 6.78103 1.9146 7.16968 1.9325 7.5675C1.9504 7.96532 2.12561 8.33974 2.41957 8.60839C2.71353 8.87704 3.10218 9.0179 3.5 9H3.59C3.50777 9.22657 3.48134 9.46961 3.51297 9.70855C3.54459 9.9475 3.63332 10.1753 3.77166 10.3727C3.91 10.5701 4.09386 10.7312 4.30768 10.8424C4.52149 10.9537 4.75897 11.0118 5 11.0118C5.24103 11.0118 5.47851 10.9537 5.69232 10.8424C5.90614 10.7312 6.09 10.5701 6.22834 10.3727C6.36668 10.1753 6.45541 9.9475 6.48703 9.70855C6.51866 9.46961 6.49223 9.22657 6.41 9H7.59C7.50777 9.22657 7.48134 9.46961 7.51297 9.70855C7.54459 9.9475 7.63332 10.1753 7.77166 10.3727C7.91 10.5701 8.09386 10.7312 8.30768 10.8424C8.52149 10.9537 8.75897 11.0118 9 11.0118C9.24103 11.0118 9.47851 10.9537 9.69232 10.8424C9.90614 10.7312 10.09 10.5701 10.2283 10.3727C10.3667 10.1753 10.4554 9.9475 10.487 9.70855C10.5187 9.46961 10.4922 9.22657 10.41 9H10.5C10.6326 9 10.7598 8.94732 10.8536 8.85355C10.9473 8.75979 11 8.63261 11 8.5C11 8.36739 10.9473 8.24021 10.8536 8.14645C10.7598 8.05268 10.6326 8 10.5 8ZM9.86 3L9.205 5.62C9.17762 5.73094 9.11308 5.82915 9.0221 5.89829C8.93113 5.96743 8.81922 6.00333 8.705 6H4.39L3.64 3H9.86ZM5 10C4.90111 10 4.80444 9.97068 4.72221 9.91574C4.63999 9.86079 4.5759 9.7827 4.53806 9.69134C4.50022 9.59998 4.49031 9.49944 4.50961 9.40245C4.5289 9.30546 4.57652 9.21637 4.64645 9.14645C4.71637 9.07652 4.80546 9.0289 4.90245 9.00961C4.99945 8.99031 5.09998 9.00022 5.19134 9.03806C5.2827 9.0759 5.36079 9.13999 5.41573 9.22221C5.47068 9.30444 5.5 9.40111 5.5 9.5C5.5 9.63261 5.44732 9.75979 5.35355 9.85355C5.25979 9.94732 5.13261 10 5 10ZM9 10C8.90111 10 8.80444 9.97068 8.72221 9.91574C8.63999 9.86079 8.5759 9.7827 8.53806 9.69134C8.50022 9.59998 8.49031 9.49944 8.50961 9.40245C8.5289 9.30546 8.57652 9.21637 8.64645 9.14645C8.71637 9.07652 8.80546 9.0289 8.90245 9.00961C8.99944 8.99031 9.09998 9.00022 9.19134 9.03806C9.2827 9.0759 9.36079 9.13999 9.41574 9.22221C9.47068 9.30444 9.5 9.40111 9.5 9.5C9.5 9.63261 9.44732 9.75979 9.35355 9.85355C9.25979 9.94732 9.13261 10 9 10Z" fill="white"/>
</svg>
