<svg width="11" height="7" viewBox="0 0 11 7" fill="none" xmlns="http://www.w3.org/2000/svg">
<path d="M2.5 3C2.40111 3 2.30444 3.02932 2.22221 3.08427C2.13999 3.13921 2.0759 3.2173 2.03806 3.30866C2.00022 3.40002 1.99031 3.50055 2.00961 3.59755C2.0289 3.69454 2.07652 3.78363 2.14645 3.85355C2.21637 3.92348 2.30546 3.9711 2.40245 3.99039C2.49945 4.00969 2.59998 3.99978 2.69134 3.96194C2.7827 3.9241 2.86079 3.86001 2.91573 3.77779C2.97068 3.69556 3 3.59889 3 3.5C3 3.36739 2.94732 3.24021 2.85355 3.14645C2.75979 3.05268 2.63261 3 2.5 3ZM8.5 3C8.40111 3 8.30444 3.02932 8.22221 3.08427C8.13999 3.13921 8.0759 3.2173 8.03806 3.30866C8.00022 3.40002 7.99031 3.50055 8.00961 3.59755C8.0289 3.69454 8.07652 3.78363 8.14645 3.85355C8.21637 3.92348 8.30546 3.9711 8.40245 3.99039C8.49944 4.00969 8.59998 3.99978 8.69134 3.96194C8.7827 3.9241 8.86079 3.86001 8.91574 3.77779C8.97068 3.69556 9 3.59889 9 3.5C9 3.36739 8.94732 3.24021 8.85355 3.14645C8.75979 3.05268 8.63261 3 8.5 3ZM9.5 0H1.5C1.10218 0 0.720644 0.158035 0.43934 0.43934C0.158035 0.720644 0 1.10218 0 1.5V5.5C0 5.89782 0.158035 6.27936 0.43934 6.56066C0.720644 6.84196 1.10218 7 1.5 7H9.5C9.89782 7 10.2794 6.84196 10.5607 6.56066C10.842 6.27936 11 5.89782 11 5.5V1.5C11 1.10218 10.842 0.720644 10.5607 0.43934C10.2794 0.158035 9.89782 0 9.5 0ZM10 5.5C10 5.63261 9.94732 5.75979 9.85355 5.85355C9.75979 5.94732 9.63261 6 9.5 6H1.5C1.36739 6 1.24021 5.94732 1.14645 5.85355C1.05268 5.75979 1 5.63261 1 5.5V1.5C1 1.36739 1.05268 1.24021 1.14645 1.14645C1.24021 1.05268 1.36739 1 1.5 1H9.5C9.63261 1 9.75979 1.05268 9.85355 1.14645C9.94732 1.24021 10 1.36739 10 1.5V5.5ZM5.5 2C5.20333 2 4.91332 2.08797 4.66664 2.2528C4.41997 2.41762 4.22771 2.65189 4.11418 2.92597C4.00065 3.20006 3.97094 3.50166 4.02882 3.79264C4.0867 4.08361 4.22956 4.35088 4.43934 4.56066C4.64912 4.77044 4.91639 4.9133 5.20736 4.97118C5.49834 5.02906 5.79994 4.99935 6.07403 4.88582C6.34811 4.77229 6.58238 4.58003 6.7472 4.33336C6.91203 4.08668 7 3.79667 7 3.5C7 3.10218 6.84196 2.72064 6.56066 2.43934C6.27936 2.15804 5.89782 2 5.5 2ZM5.5 4C5.40111 4 5.30444 3.97068 5.22221 3.91573C5.13999 3.86079 5.0759 3.7827 5.03806 3.69134C5.00022 3.59998 4.99031 3.49945 5.00961 3.40245C5.0289 3.30546 5.07652 3.21637 5.14645 3.14645C5.21637 3.07652 5.30546 3.0289 5.40245 3.00961C5.49945 2.99031 5.59998 3.00022 5.69134 3.03806C5.7827 3.0759 5.86079 3.13999 5.91573 3.22221C5.97068 3.30444 6 3.40111 6 3.5C6 3.63261 5.94732 3.75979 5.85355 3.85355C5.75979 3.94732 5.63261 4 5.5 4Z" fill="white"/>
</svg>
