<svg width="16" height="16" viewBox="0 0 16 16" fill="none" xmlns="http://www.w3.org/2000/svg">
<path d="M2.66663 3.33341C2.66663 3.1566 2.73686 2.98703 2.86189 2.86201C2.98691 2.73699 3.15648 2.66675 3.33329 2.66675H5.99996C6.17677 2.66675 6.34634 2.73699 6.47136 2.86201C6.59639 2.98703 6.66663 3.1566 6.66663 3.33341V6.00008C6.66663 6.17689 6.59639 6.34646 6.47136 6.47149C6.34634 6.59651 6.17677 6.66675 5.99996 6.66675H3.33329C3.15648 6.66675 2.98691 6.59651 2.86189 6.47149C2.73686 6.34646 2.66663 6.17689 2.66663 6.00008V3.33341Z" stroke="#FE9F43" stroke-linecap="round" stroke-linejoin="round"/>
<path d="M9.33329 3.33341C9.33329 3.1566 9.40353 2.98703 9.52856 2.86201C9.65358 2.73699 9.82315 2.66675 9.99996 2.66675H12.6666C12.8434 2.66675 13.013 2.73699 13.138 2.86201C13.2631 2.98703 13.3333 3.1566 13.3333 3.33341V6.00008C13.3333 6.17689 13.2631 6.34646 13.138 6.47149C13.013 6.59651 12.8434 6.66675 12.6666 6.66675H9.99996C9.82315 6.66675 9.65358 6.59651 9.52856 6.47149C9.40353 6.34646 9.33329 6.17689 9.33329 6.00008V3.33341Z" stroke="#FE9F43" stroke-linecap="round" stroke-linejoin="round"/>
<path d="M2.66663 10.0001C2.66663 9.82327 2.73686 9.6537 2.86189 9.52868C2.98691 9.40365 3.15648 9.33341 3.33329 9.33341H5.99996C6.17677 9.33341 6.34634 9.40365 6.47136 9.52868C6.59639 9.6537 6.66663 9.82327 6.66663 10.0001V12.6667C6.66663 12.8436 6.59639 13.0131 6.47136 13.1382C6.34634 13.2632 6.17677 13.3334 5.99996 13.3334H3.33329C3.15648 13.3334 2.98691 13.2632 2.86189 13.1382C2.73686 13.0131 2.66663 12.8436 2.66663 12.6667V10.0001Z" stroke="#FE9F43" stroke-linecap="round" stroke-linejoin="round"/>
<path d="M9.33329 10.0001C9.33329 9.82327 9.40353 9.6537 9.52856 9.52868C9.65358 9.40365 9.82315 9.33341 9.99996 9.33341H12.6666C12.8434 9.33341 13.013 9.40365 13.138 9.52868C13.2631 9.6537 13.3333 9.82327 13.3333 10.0001V12.6667C13.3333 12.8436 13.2631 13.0131 13.138 13.1382C13.013 13.2632 12.8434 13.3334 12.6666 13.3334H9.99996C9.82315 13.3334 9.65358 13.2632 9.52856 13.1382C9.40353 13.0131 9.33329 12.8436 9.33329 12.6667V10.0001Z" stroke="#FE9F43" stroke-linecap="round" stroke-linejoin="round"/>
</svg>
